<svg width="100%" viewBox="0 0 680 200" role="img" xmlns="http://www.w3.org/2000/svg">
  <title>R. Ruthuraraj — ML and Generative AI Portfolio banner</title>
  <defs>
    <marker id="arrow" viewBox="0 0 10 10" refX="8" refY="5" markerWidth="6" markerHeight="6" orient="auto-start-reverse">
      <path d="M2 1L8 5L2 9" fill="none" stroke="context-stroke" stroke-width="1.5" stroke-linecap="round" stroke-linejoin="round"/>
    </marker>
  </defs>
  <rect width="680" height="200" rx="14" fill="#0D0D1A"/>
  <line x1="0" y1="50"  x2="680" y2="50"  stroke="#ffffff" stroke-width="0.3" opacity="0.04"/>
  <line x1="0" y1="100" x2="680" y2="100" stroke="#ffffff" stroke-width="0.3" opacity="0.04"/>
  <line x1="0" y1="150" x2="680" y2="150" stroke="#ffffff" stroke-width="0.3" opacity="0.04"/>
  <line x1="170" y1="0" x2="170" y2="200" stroke="#ffffff" stroke-width="0.3" opacity="0.04"/>
  <line x1="340" y1="0" x2="340" y2="200" stroke="#ffffff" stroke-width="0.3" opacity="0.04"/>
  <line x1="510" y1="0" x2="510" y2="200" stroke="#ffffff" stroke-width="0.3" opacity="0.04"/>
  <circle cx="480" cy="52"  r="7" fill="#26215C" stroke="#7F77DD" stroke-width="1.2"/>
  <circle cx="480" cy="85"  r="7" fill="#26215C" stroke="#7F77DD" stroke-width="1.2"/>
  <circle cx="480" cy="118" r="7" fill="#26215C" stroke="#7F77DD" stroke-width="1.2"/>
  <circle cx="480" cy="151" r="7" fill="#26215C" stroke="#7F77DD" stroke-width="1.2"/>
  <circle cx="555" cy="63"  r="7" fill="#3C3489" stroke="#AFA9EC" stroke-width="1.2"/>
  <circle cx="555" cy="100" r="7" fill="#3C3489" stroke="#AFA9EC" stroke-width="1.2"/>
  <circle cx="555" cy="137" r="7" fill="#3C3489" stroke="#AFA9EC" stroke-width="1.2"/>
  <circle cx="630" cy="80"  r="7" fill="#412402" stroke="#EF9F27" stroke-width="1.4"/>
  <circle cx="630" cy="120" r="7" fill="#412402" stroke="#BA7517" stroke-width="1.2" opacity="0.7"/>
  <line x1="487" y1="52"  x2="548" y2="63"  stroke="#534AB7" stroke-width="0.7" opacity="0.5"/>
  <line x1="487" y1="52"  x2="548" y2="100" stroke="#534AB7" stroke-width="0.4" opacity="0.3"/>
  <line x1="487" y1="85"  x2="548" y2="63"  stroke="#534AB7" stroke-width="0.9" opacity="0.6"/>
  <line x1="487" y1="85"  x2="548" y2="100" stroke="#534AB7" stroke-width="0.7" opacity="0.5"/>
  <line x1="487" y1="85"  x2="548" y2="137" stroke="#534AB7" stroke-width="0.4" opacity="0.25"/>
  <line x1="487" y1="118" x2="548" y2="100" stroke="#534AB7" stroke-width="1.1" opacity="0.7"/>
  <line x1="487" y1="118" x2="548" y2="137" stroke="#534AB7" stroke-width="0.8" opacity="0.55"/>
  <line x1="487" y1="151" x2="548" y2="137" stroke="#534AB7" stroke-width="0.9" opacity="0.6"/>
  <line x1="487" y1="151" x2="548" y2="100" stroke="#534AB7" stroke-width="0.4" opacity="0.25"/>
  <line x1="562" y1="63"  x2="623" y2="80"  stroke="#EF9F27" stroke-width="1.5" opacity="0.8"/>
  <line x1="562" y1="100" x2="623" y2="80"  stroke="#EF9F27" stroke-width="0.9" opacity="0.55"/>
  <line x1="562" y1="100" x2="623" y2="120" stroke="#EF9F27" stroke-width="1.1" opacity="0.65"/>
  <line x1="562" y1="137" x2="623" y2="120" stroke="#EF9F27" stroke-width="0.7" opacity="0.45"/>
  <line x1="562" y1="63"  x2="623" y2="120" stroke="#EF9F27" stroke-width="0.4" opacity="0.25"/>
  <rect x="36" y="44" width="3" height="112" rx="2" fill="#7F77DD" opacity="0.8"/>
  <text x="52" y="86" font-family="'Fira Code', 'Courier New', monospace" font-size="28" font-weight="700" fill="#EEEDFE" letter-spacing="-0.5">R. Ruthuraraj</text>
  <text x="53" y="115" font-family="'Fira Code', 'Courier New', monospace" font-size="13" fill="#AFA9EC" letter-spacing="0.3">Asst. Professor · Mechanical Engineering · SNS College of Technology</text>
  <text x="53" y="136" font-family="'Fira Code', 'Courier New', monospace" font-size="12" fill="#7F77DD" letter-spacing="0.2">AICTE QIP · AI to Generative AI · IIIT Allahabad</text>
  <text x="53" y="166" font-family="'Fira Code', 'Courier New', monospace" font-size="11.5" fill="#534AB7" letter-spacing="0.5">Classical ML → Deep Learning → Generative AI → Agentic Systems</text>
  <rect x="0" y="193" width="680" height="7" rx="0" fill="#7F77DD" opacity="0.15"/>
  <rect x="36" y="195" width="120" height="3" rx="2" fill="#7F77DD" opacity="0.6"/>
</svg>
